# xmcd
#
# Track frame offsets: 
#        150
#        26125
#        49585
#        72945
#        97690
#        115020
#        132012
#        149090
#        166092
#        183095
#        199975
#        216797
#        233645
#        250652
#        268635
#        286777
#        304827
#        322760
#
# Disc length: 4553 seconds
#
# Revision: 0
# Processed by: cddbd v1.5.2PL0 Copyright (c) Steve Scherf et al.
# Submitted via: ExactAudioCopy v0.95b3
#
DISCID=f311c712
DTITLE=Paul McCartney  - Complete Cold Cuts (Bell Bottom 028)
DYEAR=1900
DGENRE=
TTITLE0=A love for you
TTITLE1=A love for you
TTITLE2=A love for you
TTITLE3=A love for you
TTITLE4=Hey diddle
TTITLE5=Hey diddle
TTITLE6=Hey diddle
TTITLE7=Hey diddle
TTITLE8=Hey diddle
TTITLE9=Mama's little girl
TTITLE10=Mama's little girl
TTITLE11=Mama's little girl
TTITLE12=Mama's little girl
TTITLE13=Best friend
TTITLE14=Best friend
TTITLE15=Best friend
TTITLE16=Best friend
TTITLE17=Best friend
EXTD=
EXTT0=
EXTT1=
EXTT2=
EXTT3=
EXTT4=
EXTT5=
EXTT6=
EXTT7=
EXTT8=
EXTT9=
EXTT10=
EXTT11=
EXTT12=
EXTT13=
EXTT14=
EXTT15=
EXTT16=
EXTT17=
PLAYORDER=
